<svg width="60" height="48" viewBox="0 0 60 48" fill="none" xmlns="http://www.w3.org/2000/svg">
<path d="M23.4595 41.25V41.25C19.4575 41.25 15.6537 39.9735 12.7489 37.6563C6.97785 33.0505 6.74102 25.748 12.2196 21.3761L30.0691 7.13529C31.9275 5.65179 34.436 4.83337 37.1306 4.83337C40.0137 4.83337 42.7542 5.75146 44.8446 7.41896C49.0037 10.7367 49.1632 16.0095 45.1974 19.172L27.3262 33.4109C26.1686 34.3366 24.6098 34.8445 22.9375 34.8445V34.8445C21.1709 34.8445 19.4962 34.2849 18.225 33.271C15.6803 31.2374 15.6005 27.9963 18.0486 26.0413L34.5423 12.9025C35.4848 12.1512 37.0122 12.1474 37.9595 12.8949C38.9044 13.6424 38.9093 14.8556 37.9668 15.605L21.4754 28.7457C20.8954 29.2095 20.9752 30.028 21.6543 30.5685C22.0071 30.8502 22.4759 31.0112 22.9375 31.0112V31.0112C23.2033 31.0112 23.5852 30.9595 23.8994 30.7084L41.7706 16.4695C43.8658 14.7962 43.7088 11.95 41.4178 10.1215C39.2258 8.37346 35.5066 8.23546 33.4959 9.83779L15.6464 24.0786C12.0359 26.9594 12.2728 31.8392 16.1781 34.9538C18.167 36.5427 20.7528 37.4167 23.4595 37.4167C25.8786 37.4167 28.1213 36.6922 29.7694 35.3774L47.6213 21.1365C48.5614 20.3871 50.0912 20.3814 51.0385 21.1289C51.9834 21.8764 51.9883 23.0877 51.0482 23.839L33.1963 38.0799C30.6346 40.123 27.1763 41.25 23.4595 41.25" fill="#0D1C2E"/>
<mask id="mask0_70_316" style="mask-type:alpha" maskUnits="userSpaceOnUse" x="8" y="4" width="44" height="38">
<path d="M23.4595 41.25V41.25C19.4575 41.25 15.6537 39.9735 12.7489 37.6563C6.97785 33.0505 6.74102 25.748 12.2196 21.3761L30.0691 7.13529C31.9275 5.65179 34.436 4.83337 37.1306 4.83337C40.0137 4.83337 42.7542 5.75146 44.8446 7.41896C49.0037 10.7367 49.1632 16.0095 45.1974 19.172L27.3262 33.4109C26.1686 34.3366 24.6098 34.8445 22.9375 34.8445V34.8445C21.1709 34.8445 19.4962 34.2849 18.225 33.271C15.6803 31.2374 15.6005 27.9963 18.0486 26.0413L34.5423 12.9025C35.4848 12.1512 37.0122 12.1474 37.9595 12.8949C38.9044 13.6424 38.9093 14.8556 37.9668 15.605L21.4754 28.7457C20.8954 29.2095 20.9752 30.028 21.6543 30.5685C22.0071 30.8502 22.4759 31.0112 22.9375 31.0112V31.0112C23.2033 31.0112 23.5852 30.9595 23.8994 30.7084L41.7706 16.4695C43.8658 14.7962 43.7088 11.95 41.4178 10.1215C39.2258 8.37346 35.5066 8.23546 33.4959 9.83779L15.6464 24.0786C12.0359 26.9594 12.2728 31.8392 16.1781 34.9538C18.167 36.5427 20.7528 37.4167 23.4595 37.4167C25.8786 37.4167 28.1213 36.6922 29.7694 35.3774L47.6213 21.1365C48.5614 20.3871 50.0912 20.3814 51.0385 21.1289C51.9834 21.8764 51.9883 23.0877 51.0482 23.839L33.1963 38.0799C30.6346 40.123 27.1763 41.25 23.4595 41.25" fill="white"/>
</mask>
<g mask="url(#mask0_70_316)">
</g>
<rect x="1" y="1" width="58" height="46" stroke="black" stroke-miterlimit="0" stroke-linejoin="bevel"/>
</svg>
