<svg width="41" height="35" viewBox="0 0 41 35" fill="none" xmlns="http://www.w3.org/2000/svg">
<path d="M15.8763 30.625C13.0473 30.625 10.3584 29.6538 8.30495 27.8906C4.22545 24.3863 4.05804 18.83 7.93083 15.5036L20.5486 4.66815C21.8623 3.5394 23.6355 2.91669 25.5403 2.91669C27.5784 2.91669 29.5156 3.61523 30.9933 4.88398C33.9334 7.40835 34.0461 11.4202 31.2427 13.8265L18.6096 24.6604C17.7913 25.3648 16.6895 25.7513 15.5073 25.7513C14.2585 25.7513 13.0746 25.3254 12.176 24.554C10.3772 23.0067 10.3208 20.5406 12.0513 19.0531L23.7107 9.05627C24.377 8.4846 25.4566 8.48169 26.1263 9.05044C26.7942 9.61919 26.7977 10.5423 26.1314 11.1125L14.4737 21.1109C14.0637 21.4638 14.1201 22.0865 14.6002 22.4977C14.8496 22.7121 15.181 22.8346 15.5073 22.8346C15.6952 22.8346 15.9651 22.7952 16.1872 22.6042L28.8203 11.7702C30.3015 10.4971 30.1904 8.33148 28.5709 6.94023C27.0215 5.61023 24.3923 5.50523 22.971 6.7244L10.3532 17.5598C7.80099 19.7517 7.96841 23.4646 10.7291 25.8344C12.135 27.0434 13.963 27.7084 15.8763 27.7084C17.5863 27.7084 19.1717 27.1571 20.3367 26.1567L32.9562 15.3213C33.6207 14.7511 34.7021 14.7467 35.3718 15.3154C36.0397 15.8842 36.0432 16.8059 35.3786 17.3775L22.7592 28.2129C20.9483 29.7675 18.5037 30.625 15.8763 30.625Z" fill="#0D1C2E"/>
<mask id="mask0_57_58" style="mask-type:alpha" maskUnits="userSpaceOnUse" x="5" y="2" width="31" height="29">
<path d="M15.8763 30.625C13.0473 30.625 10.3584 29.6538 8.30495 27.8906C4.22545 24.3863 4.05804 18.83 7.93083 15.5036L20.5486 4.66815C21.8623 3.5394 23.6355 2.91669 25.5403 2.91669C27.5784 2.91669 29.5156 3.61523 30.9933 4.88398C33.9334 7.40835 34.0461 11.4202 31.2427 13.8265L18.6096 24.6604C17.7913 25.3648 16.6895 25.7513 15.5073 25.7513C14.2585 25.7513 13.0746 25.3254 12.176 24.554C10.3772 23.0067 10.3208 20.5406 12.0513 19.0531L23.7107 9.05627C24.377 8.4846 25.4566 8.48169 26.1263 9.05044C26.7942 9.61919 26.7977 10.5423 26.1314 11.1125L14.4737 21.1109C14.0637 21.4638 14.1201 22.0865 14.6002 22.4977C14.8496 22.7121 15.181 22.8346 15.5073 22.8346C15.6952 22.8346 15.9651 22.7952 16.1872 22.6042L28.8203 11.7702C30.3015 10.4971 30.1904 8.33148 28.5709 6.94023C27.0215 5.61023 24.3923 5.50523 22.971 6.7244L10.3532 17.5598C7.80099 19.7517 7.96841 23.4646 10.7291 25.8344C12.135 27.0434 13.963 27.7084 15.8763 27.7084C17.5863 27.7084 19.1717 27.1571 20.3367 26.1567L32.9562 15.3213C33.6207 14.7511 34.7021 14.7467 35.3718 15.3154C36.0397 15.8842 36.0432 16.8059 35.3786 17.3775L22.7592 28.2129C20.9483 29.7675 18.5037 30.625 15.8763 30.625Z" fill="white"/>
</mask>
<g mask="url(#mask0_57_58)">
</g>
</svg>
