<svg width="48" height="48" viewBox="0 0 48 48" fill="none" xmlns="http://www.w3.org/2000/svg">
<path fill-rule="evenodd" clip-rule="evenodd" d="M7.89649 12H40.1025C41.1465 12 42.0005 12.854 42.0005 13.898V14.102C42.0005 15.146 41.1465 16 40.1025 16H7.89649C6.85249 16 6.00049 15.146 6.00049 14.102V13.898C6.00049 12.854 6.85249 12 7.89649 12ZM40.1025 22H7.89649C6.85249 22 6.00049 22.854 6.00049 23.898V24.102C6.00049 25.146 6.85249 26 7.89649 26H40.1025C41.1465 26 42.0005 25.146 42.0005 24.102V23.898C42.0005 22.854 41.1465 22 40.1025 22ZM40.1025 32H7.89649C6.85249 32 6.00049 32.854 6.00049 33.898V34.102C6.00049 35.146 6.85249 36 7.89649 36H40.1025C41.1465 36 42.0005 35.146 42.0005 34.102V33.898C42.0005 32.854 41.1465 32 40.1025 32Z" fill="#0D1C2E"/>
<mask id="mask0_86_649" style="mask-type:alpha" maskUnits="userSpaceOnUse" x="6" y="12" width="37" height="24">
<path fill-rule="evenodd" clip-rule="evenodd" d="M7.89649 12H40.1025C41.1465 12 42.0005 12.854 42.0005 13.898V14.102C42.0005 15.146 41.1465 16 40.1025 16H7.89649C6.85249 16 6.00049 15.146 6.00049 14.102V13.898C6.00049 12.854 6.85249 12 7.89649 12ZM40.1025 22H7.89649C6.85249 22 6.00049 22.854 6.00049 23.898V24.102C6.00049 25.146 6.85249 26 7.89649 26H40.1025C41.1465 26 42.0005 25.146 42.0005 24.102V23.898C42.0005 22.854 41.1465 22 40.1025 22ZM40.1025 32H7.89649C6.85249 32 6.00049 32.854 6.00049 33.898V34.102C6.00049 35.146 6.85249 36 7.89649 36H40.1025C41.1465 36 42.0005 35.146 42.0005 34.102V33.898C42.0005 32.854 41.1465 32 40.1025 32Z" fill="white"/>
</mask>
<g mask="url(#mask0_86_649)">
</g>
</svg>
