<svg width="48" height="48" viewBox="0 0 48 48" fill="none" xmlns="http://www.w3.org/2000/svg">
<path fill-rule="evenodd" clip-rule="evenodd" d="M7.89661 12H40.1026C41.1466 12 42.0006 12.854 42.0006 13.898V14.102C42.0006 15.146 41.1466 16 40.1026 16H7.89661C6.85261 16 6.00061 15.146 6.00061 14.102V13.898C6.00061 12.854 6.85261 12 7.89661 12ZM40.1026 22H7.89661C6.85261 22 6.00061 22.854 6.00061 23.898V24.102C6.00061 25.146 6.85261 26 7.89661 26H40.1026C41.1466 26 42.0006 25.146 42.0006 24.102V23.898C42.0006 22.854 41.1466 22 40.1026 22ZM40.1026 32H7.89661C6.85261 32 6.00061 32.854 6.00061 33.898V34.102C6.00061 35.146 6.85261 36 7.89661 36H40.1026C41.1466 36 42.0006 35.146 42.0006 34.102V33.898C42.0006 32.854 41.1466 32 40.1026 32Z" fill="#0D1C2E"/>
<mask id="mask0_58_74" style="mask-type:alpha" maskUnits="userSpaceOnUse" x="6" y="12" width="37" height="24">
<path fill-rule="evenodd" clip-rule="evenodd" d="M7.89661 12H40.1026C41.1466 12 42.0006 12.854 42.0006 13.898V14.102C42.0006 15.146 41.1466 16 40.1026 16H7.89661C6.85261 16 6.00061 15.146 6.00061 14.102V13.898C6.00061 12.854 6.85261 12 7.89661 12ZM40.1026 22H7.89661C6.85261 22 6.00061 22.854 6.00061 23.898V24.102C6.00061 25.146 6.85261 26 7.89661 26H40.1026C41.1466 26 42.0006 25.146 42.0006 24.102V23.898C42.0006 22.854 41.1466 22 40.1026 22ZM40.1026 32H7.89661C6.85261 32 6.00061 32.854 6.00061 33.898V34.102C6.00061 35.146 6.85261 36 7.89661 36H40.1026C41.1466 36 42.0006 35.146 42.0006 34.102V33.898C42.0006 32.854 41.1466 32 40.1026 32Z" fill="white"/>
</mask>
<g mask="url(#mask0_58_74)">
</g>
</svg>
