<svg width="33" height="32" viewBox="0 0 33 32" fill="none" xmlns="http://www.w3.org/2000/svg">
<path fill-rule="evenodd" clip-rule="evenodd" d="M23.6442 27.7893C23.8375 27.8906 24.0495 27.94 24.2615 27.94C24.5389 27.94 24.8149 27.8546 25.0455 27.684C25.4562 27.3853 25.6602 26.88 25.5749 26.38L24.2789 18.876L29.7722 13.5626C30.1389 13.2093 30.2695 12.6786 30.1135 12.1946C29.9589 11.7106 29.5402 11.3586 29.0375 11.2853L21.4362 10.1813L18.0402 3.34663C17.5895 2.43996 16.1015 2.43996 15.6509 3.34663L12.2549 10.1813L4.65355 11.2853C4.15088 11.3586 3.73221 11.7106 3.57755 12.1946C3.42155 12.6786 3.55221 13.2093 3.91888 13.5626L9.41221 18.876L8.11621 26.38C8.03088 26.88 8.23488 27.3853 8.64555 27.684C9.05221 27.9826 9.59621 28.024 10.0469 27.7893L16.8455 24.2373L23.6442 27.7893ZM17.4629 21.5506C17.2695 21.4506 17.0575 21.4 16.8455 21.4C16.6335 21.4 16.4215 21.4506 16.2282 21.5506L11.2029 24.1773L12.1589 18.6346C12.2349 18.2 12.0895 17.7573 11.7722 17.4493L7.72421 13.5346L13.3282 12.7186C13.7615 12.656 14.1362 12.3853 14.3309 11.9933L16.8455 6.93463L19.3602 11.9933C19.5549 12.3853 19.9295 12.656 20.3629 12.7186L25.9669 13.5346L21.9189 17.4493C21.6015 17.7573 21.4562 18.2 21.5322 18.6346L22.4882 24.1773L17.4629 21.5506Z" fill="#0D1C2E"/>
<mask id="mask0_57_48" style="mask-type:alpha" maskUnits="userSpaceOnUse" x="3" y="2" width="28" height="26">
<path fill-rule="evenodd" clip-rule="evenodd" d="M23.6442 27.7893C23.8375 27.8906 24.0495 27.94 24.2615 27.94C24.5389 27.94 24.8149 27.8546 25.0455 27.684C25.4562 27.3853 25.6602 26.88 25.5749 26.38L24.2789 18.876L29.7722 13.5626C30.1389 13.2093 30.2695 12.6786 30.1135 12.1946C29.9589 11.7106 29.5402 11.3586 29.0375 11.2853L21.4362 10.1813L18.0402 3.34663C17.5895 2.43996 16.1015 2.43996 15.6509 3.34663L12.2549 10.1813L4.65355 11.2853C4.15088 11.3586 3.73221 11.7106 3.57755 12.1946C3.42155 12.6786 3.55221 13.2093 3.91888 13.5626L9.41221 18.876L8.11621 26.38C8.03088 26.88 8.23488 27.3853 8.64555 27.684C9.05221 27.9826 9.59621 28.024 10.0469 27.7893L16.8455 24.2373L23.6442 27.7893ZM17.4629 21.5506C17.2695 21.4506 17.0575 21.4 16.8455 21.4C16.6335 21.4 16.4215 21.4506 16.2282 21.5506L11.2029 24.1773L12.1589 18.6346C12.2349 18.2 12.0895 17.7573 11.7722 17.4493L7.72421 13.5346L13.3282 12.7186C13.7615 12.656 14.1362 12.3853 14.3309 11.9933L16.8455 6.93463L19.3602 11.9933C19.5549 12.3853 19.9295 12.656 20.3629 12.7186L25.9669 13.5346L21.9189 17.4493C21.6015 17.7573 21.4562 18.2 21.5322 18.6346L22.4882 24.1773L17.4629 21.5506Z" fill="white"/>
</mask>
<g mask="url(#mask0_57_48)">
</g>
</svg>
